<svg xmlns="http://www.w3.org/2000/svg" xmlns:v="https://vecta.io/nano" width="48" height="48" fill="none"><g stroke="#000" stroke-width="1.5"><rect width="46.5" height="46.5" x=".75" y=".75" fill="#fde68a" rx="5.25"/><path d="M29.115 28.489c-.606.545-1.065 1.336-1.065 2.249V36.4a1.25 1.25 0 0 1-1.25 1.25h-5.6a1.25 1.25 0 0 1-1.25-1.25v-5.662c0-.913-.46-1.704-1.065-2.249A7.63 7.63 0 0 1 16.35 22.8a7.65 7.65 0 0 1 15.3 0 7.63 7.63 0 0 1-2.535 5.688z"/><path stroke-linejoin="round" stroke-miterlimit="3.075" d="M20.4 34.2h7.2m-7.2-3h7.2"/></g><circle cx="24" cy="22.8" r="1.2" fill="#000"/><g stroke="#000" stroke-linejoin="round" stroke-miterlimit="3.075" stroke-width="1.5"><path d="M24 22.8v8.4"/><path stroke-linecap="round" d="M24 9.6V12m7.2-1.2L30 12.878M16.8 10.8l1.2 2.078M12 15.6l2.079 1.2M36 15.6l-2.078 1.2"/></g></svg>